<svg xmlns="http://www.w3.org/2000/svg" xmlns:xlink="http://www.w3.org/1999/xlink" viewBox="0 0 251 255"><defs><style>.cls-1{fill:url(#Dégradé_sans_nom_41);}.cls-2{fill:url(#Dégradé_sans_nom_6);}.cls-3{fill:url(#Dégradé_sans_nom_6-2);}</style><linearGradient id="Dégradé_sans_nom_41" x1="229.93" y1="93.94" x2="200.22" y2="145.64" gradientUnits="userSpaceOnUse"><stop offset="0" stop-color="#db00ff"/><stop offset="0.12" stop-color="#da01fa"/><stop offset="0.26" stop-color="#d804ec"/><stop offset="0.41" stop-color="#d50ad4"/><stop offset="0.56" stop-color="#d111b2"/><stop offset="0.73" stop-color="#cb1b87"/><stop offset="0.9" stop-color="#c42753"/><stop offset="1" stop-color="#bf2f2f"/></linearGradient><linearGradient id="Dégradé_sans_nom_6" x1="160.88" y1="92.98" x2="144.35" y2="117.87" gradientUnits="userSpaceOnUse"><stop offset="0" stop-color="#bf2f2f"/><stop offset="1" stop-color="#db00ff"/></linearGradient><linearGradient id="Dégradé_sans_nom_6-2" x1="112.88" y1="161.46" x2="130.18" y2="133.32" xlink:href="#Dégradé_sans_nom_6"/></defs><g id="Calque_9" data-name="Calque 9"><path class="cls-1" d="M197.66,167.5a8.73,8.73,0,0,1-2.85-.47,5.43,5.43,0,0,1-3.27-3,6,6,0,0,1,.09-4.8q1.85-4.2,3.71-8.38l4.07-9.19h-6.14c-1.54,0-3.09,0-4.62,0-3.23,0-5.66-1.38-6.92-4.07-.88-1.9-1.37-4.82,1.37-8q6.12-7,12.21-14.1L216.86,90.6a8.84,8.84,0,0,1,9.6-2.62,5.44,5.44,0,0,1,3.29,3,5.89,5.89,0,0,1-.12,4.79c-1,2.14-1.95,4.26-2.94,6.39l-5.19,11.18h.68c3.5,0,7,0,10.5,0h.09a6.93,6.93,0,0,1,6.79,4.09c.88,1.89,1.35,4.81-1.38,8q-8.3,9.55-16.56,19.13l-8.74,10.11-8.46,9.79A8.94,8.94,0,0,1,197.66,167.5Zm-.54-31.31h5.45a3.34,3.34,0,0,1,3.1,1.37,3.42,3.42,0,0,1,0,3.46l-5.34,12.06q-1.86,4.18-3.7,8.37a.8.8,0,0,0-.08.4,3.55,3.55,0,0,0,3.81-1q4.23-4.91,8.48-9.8l8.73-10.1q8.28-9.59,16.56-19.14c1-1.13.74-1.63.56-2s-.52-.85-1.92-.94c-3.52,0-7,0-10.56,0h-3.8a3.43,3.43,0,0,1-3.2-1.4,3.51,3.51,0,0,1,.11-3.56l6.5-14c1-2.1,2-4.21,2.91-6.32a.68.68,0,0,0,.08-.36,3.56,3.56,0,0,0-3.82,1L199.4,119.13q-6.1,7.05-12.22,14.1c-1,1.12-.73,1.63-.54,2s.59,1,1.9.93c1.58,0,3.17,0,4.75,0Z"/><path d="M53.15,167.5H48.66L28.51,119.73q-4.19-9.87-8.37-21.47h-.47q.82,16.68.83,30.56V167.5H10.76v-80H24.81l18.83,45.26q3.22,7.77,7.12,18.72h.3q4.3-12.14,7.11-18.72L77,87.5h14v80H81.31V128.82q0-13.57.84-30.56h-.48q-4.42,12.26-8.37,21.47Z"/><path d="M143.14,126.9l28.4,40.6H160.6l-29.54-40.84L104.15,87.5h10.71Z"/><path class="cls-2" d="M138.73,117.86l19.93-29.18a2.69,2.69,0,0,1,2.23-1.18h4.19a2.7,2.7,0,0,1,2.22,4.26l-23.21,33.18Z"/><path class="cls-3" d="M135.45,135.72l-22,31.78H102.42L130,128.12Z"/></g></svg>